<?xml version="1.0" encoding="UTF-8"?>
<svg xmlns="http://www.w3.org/2000/svg" xmlns:xlink="http://www.w3.org/1999/xlink" viewBox="0 0 250 250" width="250px" height="250px">
<g id="surface35546445">
<path style=" stroke:none;fill-rule:nonzero;fill:rgb(22.745098%,24.705882%,36.862746%);fill-opacity:1;" d="M 205 20 L 45 20 C 31.199219 20 20 31.199219 20 45 L 20 205 C 20 218.800781 31.199219 230 45 230 L 205 230 C 218.800781 230 230 218.800781 230 205 L 230 45 C 230 31.199219 218.800781 20 205 20 Z M 85 100 L 85 195 L 55 195 L 55 100 Z M 55 72.351562 C 55 65.351562 61 60 70 60 C 79 60 84.648438 65.351562 85 72.351562 C 85 79.351562 79.398438 85 70 85 C 61 85 55 79.351562 55 72.351562 Z M 195 195 L 165 195 C 165 195 165 148.699219 165 145 C 165 135 160 125 147.5 124.800781 L 147.101562 124.800781 C 135 124.800781 130 135.101562 130 145 C 130 149.550781 130 195 130 195 L 100 195 L 100 100 L 130 100 L 130 112.800781 C 130 112.800781 139.648438 100 159.050781 100 C 178.898438 100 195 113.648438 195 141.300781 Z M 195 195 "/>
</g>
</svg>
