<?xml version="1.0" encoding="UTF-8"?>
<svg xmlns="http://www.w3.org/2000/svg" xmlns:xlink="http://www.w3.org/1999/xlink" viewBox="0 0 250 250" width="250px" height="250px">
<g id="surface29893210">
<path style=" stroke:none;fill-rule:nonzero;fill:rgb(22.745098%,24.705882%,36.862746%);fill-opacity:1;" d="M 88.953125 234.179688 C 92.511719 232.648438 95 229.113281 95 225 L 95 198 C 95 197.015625 95.078125 195.988281 95.203125 194.949219 C 95.136719 194.96875 95.070312 194.984375 95 195 C 95 195 80 195 77 195 C 69.5 195 63 192 60 186 C 56.5 179.5 55 168.5 46 162.5 C 44.5 161.5 45.5 160 48.5 160 C 51.5 160.5 58 164.5 62 170 C 66.5 175.5 71 180 79 180 C 91.433594 180 98.101562 179.375 102.109375 177.226562 C 106.78125 170.28125 113.246094 165 120 165 L 120 164.875 C 91.660156 163.964844 73.554688 154.546875 65.125 140 C 46.800781 140.210938 30.84375 142.023438 21.738281 143.535156 C 21.449219 141.898438 21.199219 140.253906 20.984375 138.601562 C 29.96875 137.121094 45.199219 135.363281 62.710938 135.03125 C 62.148438 133.648438 61.664062 132.234375 61.253906 130.785156 C 43.699219 129.894531 28.550781 130.589844 20.320312 131.269531 C 20.21875 129.609375 20.085938 127.953125 20.066406 126.273438 C 28.308594 125.601562 43.050781 124.925781 60.15625 125.71875 C 59.761719 123.21875 59.503906 120.664062 59.503906 118.003906 C 59.503906 109.503906 62.503906 100.503906 68.003906 93.003906 C 65.503906 84.503906 62.003906 66.503906 69.003906 60.003906 C 82.503906 60.003906 92.003906 66.503906 96.503906 70.503906 C 105 67 114.5 65 125 65 C 135.5 65 145 67 153 70.5 C 157.5 66.5 167 60 180.5 60 C 188 67 184 85 181.5 93 C 187 100.5 190 109 189.5 118 C 189.5 120.421875 189.273438 122.753906 188.949219 125.046875 C 206.445312 124.183594 221.585938 124.875 229.96875 125.554688 C 229.960938 127.238281 229.804688 128.886719 229.714844 130.550781 C 221.359375 129.859375 205.839844 129.148438 187.921875 130.105469 C 187.476562 131.785156 186.933594 133.421875 186.296875 135.003906 C 204.023438 135.234375 219.621094 136.949219 229.035156 138.449219 C 228.820312 140.109375 228.570312 141.753906 228.28125 143.386719 C 218.71875 141.855469 202.425781 140.066406 183.886719 139.976562 C 175.558594 154.363281 157.785156 163.75 130 164.84375 L 130 165 C 143 165 155 184.5 155 198 L 155 225 C 155 229.113281 157.488281 232.648438 161.046875 234.179688 C 206.851562 219.019531 240 175.820312 240 125 C 240 61.589844 188.414062 10 125 10 C 61.585938 10 10 61.589844 10 125 C 10 175.820312 43.148438 219.019531 88.953125 234.179688 Z M 88.953125 234.179688 "/>
</g>
</svg>
