<?xml version="1.0" encoding="UTF-8"?>
<svg xmlns="http://www.w3.org/2000/svg" xmlns:xlink="http://www.w3.org/1999/xlink" viewBox="0 0 250 250" width="250px" height="250px">
<g id="surface53141120">
<path style=" stroke:none;fill-rule:nonzero;fill:rgb(100%,100%,100%);fill-opacity:1;" d="M 125 10 C 61.546875 10 10 61.546875 10 125 C 10 188.453125 61.546875 240 125 240 C 188.453125 240 240 188.453125 240 125 C 240 61.546875 188.453125 10 125 10 Z M 125 20 C 183.046875 20 230 66.953125 230 125 C 230 183.046875 183.046875 230 125 230 C 66.953125 230 20 183.046875 20 125 C 20 66.953125 66.953125 20 125 20 Z M 164.949219 79.933594 C 163.632812 79.960938 162.378906 80.515625 161.464844 81.464844 L 125 117.929688 L 88.535156 81.464844 C 87.59375 80.496094 86.300781 79.953125 84.953125 79.953125 C 82.917969 79.953125 81.085938 81.183594 80.320312 83.070312 C 79.554688 84.957031 80.007812 87.117188 81.464844 88.535156 L 117.929688 125 L 81.464844 161.464844 C 80.160156 162.71875 79.632812 164.582031 80.089844 166.332031 C 80.546875 168.085938 81.914062 169.453125 83.667969 169.910156 C 85.417969 170.367188 87.28125 169.839844 88.535156 168.535156 L 125 132.070312 L 161.464844 168.535156 C 162.71875 169.839844 164.582031 170.367188 166.332031 169.910156 C 168.085938 169.453125 169.453125 168.085938 169.910156 166.332031 C 170.367188 164.582031 169.839844 162.71875 168.535156 161.464844 L 132.070312 125 L 168.535156 88.535156 C 170.019531 87.105469 170.476562 84.910156 169.683594 83.007812 C 168.890625 81.105469 167.011719 79.882812 164.949219 79.933594 Z M 164.949219 79.933594 "/>
</g>
</svg>
